HIERARCHY
ROOT ui
{
	 OFFSET 0 0 0
	 CHANNELS 3 XPosition YPosition Z Position
	 EndSite
	 {
	 OFFSET 0 -1 0
	 }
}
ROOT li
{
	 OFFSET 0 0 0
	 CHANNELS 3 XPosition YPosition Z Position
	 EndSite
	 {
	 OFFSET 0 -1 0
	 }
}
ROOT ul
{
	 OFFSET 0 0 0
	 CHANNELS 3 XPosition YPosition Z Position
	 EndSite
	 {
	 OFFSET 0 -1 0
	 }
}
ROOT ll
{
	 OFFSET 0 0 0
	 CHANNELS 3 XPosition YPosition Z Position
	 EndSite
	 {
	 OFFSET 0 -1 0
	 }
}
ROOT tt
{
	 OFFSET 0 0 0
	 CHANNELS 3 XPosition YPosition Z Position
	 EndSite
	 {
	 OFFSET 0 -1 0
	 }
}
ROOT tb
{
	 OFFSET 0 0 0
	 CHANNELS 3 XPosition YPosition Z Position
	 EndSite
	 {
	 OFFSET 0 -1 0
	 }
}
ROOT td
{
	 OFFSET 0 0 0
	 CHANNELS 3 XPosition YPosition Z Position
	 EndSite
	 {
	 OFFSET 0 -1 0
	 }
}
ROOT v
{
	 OFFSET 0 0 0
	 CHANNELS 3 XPosition YPosition Z Position
	 EndSite
	 {
	 OFFSET 0 -1 0
	 }
}
ROOT bn
{
	 OFFSET 0 0 0
	 CHANNELS 3 XPosition YPosition Z Position
	 EndSite
	 {
	 OFFSET 0 -1 0
	 }
}
MOTION
Frames: 19
Frame Time: 0.002
-0.0012198419570922851	6.288660168647766E-4	0		0.5073997192382812	-2.448463134765625	0		-1.0970283203125	-0.0315837516784668	0		-0.7883596801757813	-2.528890380859375	0		1.24258935546875	-0.9171378784179688	0		2.8137841796875	0.1322373046875	0		4.33712744140625	0.3993796691894531	0		5.58792431640625	0.060584556579589846	0		-0.1564268341064453	5.893634765625	0		
0.0016788259744644166	0.0043306188583374025	0		0.4672379455566406	-2.446947265625	0		-1.1680975341796875	-0.025472631454467775	0		-0.76174267578125	-2.539637939453125	0		1.2475213623046875	-0.9114801635742188	0		2.815361083984375	0.11894815063476563	0		4.3219365234375	0.39840399169921875	0		5.62017822265625	0.08270675659179688	0		-0.14042747497558594	5.90108984375	0		
0.009447668075561523	0.0019434759616851808	0		0.524005859375	-2.449266845703125	0		-1.0851904296875	-0.02127975845336914	0		-0.7578707275390625	-2.53594677734375	0		1.2435159912109375	-0.9016472778320312	0		2.833565185546875	0.13935430908203125	0		4.34647607421875	0.3836767883300781	0		5.6241572265625	0.09136820220947266	0		-0.27396731567382815	5.8823837890625	0		
0.0012760070562362672	0.0038660719394683837	0		0.4740948791503906	-2.4325517578125	0		-1.1094163818359375	-0.02204709815979004	0		-0.7838624267578125	-2.52368017578125	0		1.235358642578125	-0.8987313232421875	0		2.796019775390625	0.1218165283203125	0		4.342134765625	0.37650250244140626	0		5.62400341796875	0.09410951232910156	0		-0.15692205810546875	5.89293212890625	0		
0.005944309234619141	-0.0014491549730300903	0		0.508571533203125	-2.447438232421875	0		-1.1037484130859374	-0.02737436103820801	0		-0.7861517333984375	-2.525858154296875	0		1.232060791015625	-0.9019026489257812	0		2.825665283203125	0.11500907135009765	0		4.33676953125	0.3693503723144531	0		5.62212939453125	0.11288768768310548	0		-0.15712095642089843	5.8927119140625	0		
-0.07128880310058594	8.010770082473755E-4	0		0.4911763000488281	-2.453330810546875	0		-1.0981107177734375	-0.0326920280456543	0		-0.7416917724609375	-2.53991796875	0		1.225903076171875	-0.89601171875	0		2.827171875	0.10273934173583985	0		4.33420263671875	0.35314608764648436	0		5.63601416015625	0.12036542510986328	0		-0.15734297180175782	5.89250048828125	0		
4.7632798552513125E-4	0.0032280158996582033	0		0.49085684204101565	-2.4535390625	0		-1.0943336181640626	-0.0289632568359375	0		-0.8118472290039063	-2.5307861328125	0		1.2345386962890625	-0.8993971557617187	0		2.840157470703125	0.11726055145263672	0		4.3390400390625	0.3598076171875	0		5.64886669921875	0.12786323547363282	0		-0.14242074584960937	5.9010107421875	0		
0.00811145782470703	8.808739781379699E-4	0		0.4946007385253906	-2.44881640625	0		-1.0906029052734374	-0.026224016189575195	0		-0.7382879638671875	-2.536380126953125	0		1.2692738037109375	-0.8962716064453125	0		2.82655029296875	0.10228618621826172	0		4.34558349609375	0.35243603515625	0		5.66271142578125	0.1363422088623047	0		-0.27508041381835935	5.88133203125	0		
0.004710157871246338	-0.002248384952545166	0		0.5160713500976563	-2.45742626953125	0		-1.1068118896484376	-0.019094905853271484	0		-0.7874819946289062	-2.526627197265625	0		1.22696435546875	-0.893674072265625	0		2.87833056640625	0.10807556915283204	0		4.333978515625	0.33841073608398436	0		5.6565595703125	0.14620211791992188	0		-0.14296212768554686	5.9006318359375	0		
-5.496270060539245E-4	0.002667114019393921	0		0.47991973876953126	-2.444927978515625	0		-1.111243408203125	-0.02318288803100586	0		-0.7200532836914062	-2.537089599609375	0		1.2664947509765625	-0.899629150390625	0		2.8457724609375	0.09747220611572266	0		4.3366455078125	0.3391203308105469	0		5.67105029296875	0.137668212890625	0		-0.15841276550292968	5.8917421875	0		
9.377869963645935E-4	-0.0055407071113586425	0		0.48731744384765624	-2.456255859375	0		-1.0997962646484376	-0.03356668472290039	0		-0.7825296630859375	-2.541069091796875	0		1.2183037109375	-0.8899033813476562	0		2.84130029296875	0.09134185028076172	0		4.329138671875	0.3310283813476563	0		5.6741875	0.16336236572265625	0		-0.1435281219482422	5.90028564453125	0		
0.006694107055664062	1.7997799813747407E-4	0		0.48896743774414064	-2.45446435546875	0		-1.096078125	-0.02979366683959961	0		-0.7689973754882813	-2.5454892578125	0		1.2258577880859376	-0.8942343139648438	0		2.864749267578125	0.08068647766113281	0		4.33847900390625	0.3146224060058594	0		5.6828310546875	0.16295565795898437	0		-0.12762315368652344	5.90981640625	0		
0.0063460698127746585	2.3653000593185425E-5	0		0.49372283935546873	-2.44772314453125	0		-1.08829443359375	-0.02309080123901367	0		-0.8120816650390625	-2.529818359375	0		1.2336884765625	-0.8845596313476562	0		2.88278076171875	0.10014896392822266	0		4.3332880859375	0.32250845336914064	0		5.6818095703125	0.1797477264404297	0		-0.14310800170898438	5.8989501953125	0		
0.0060118470191955565	-1.2467999756336212E-4	0		0.5141668090820313	-2.45827587890625	0		-1.10856787109375	-0.019845703125	0		-0.7575111083984375	-2.53400732421875	0		1.261243896484375	-0.8902552490234374	0		2.846900146484375	0.0716424789428711	0		4.33670849609375	0.30923834228515623	0		5.67570751953125	0.1916491241455078	0		-0.27675384521484375	5.8803466796875	0		
0.0026381280422210695	-0.0032065839767456057	0		0.47602374267578124	-2.447696533203125	0		-1.1129608154296875	-0.023897384643554686	0		-0.79484619140625	-2.533432861328125	0		1.255033935546875	-0.8842938232421875	0		2.8458134765625	0.08349176025390626	0		4.33408935546875	0.2930972290039062	0		5.69338916015625	0.19110984802246095	0		-0.1597860870361328	5.89097216796875	0		
-0.002562839984893799	0.0017576509714126588	0		0.5114712219238281	-2.4605166015625	0		-1.10145166015625	-0.03424658584594727	0		-0.7972012939453125	-2.535518310546875	0		1.2186597900390626	-0.8877452392578125	0		2.88026171875	0.06967252349853516	0		4.33379443359375	0.29293289184570315	0		5.69309326171875	0.19093487548828125	0		-0.1590566864013672	5.88982421875	0		
0.0020644540786743165	-0.0034570789337158205	0		0.4603453674316406	-2.45166552734375	0		-1.093595703125	-0.027515546798706055	0		-0.7846068115234375	-2.541882080078125	0		1.26339013671875	-0.887731689453125	0		2.869255615234375	0.08374625396728516	0		4.321521484375	0.2930212707519531	0		5.7021220703125	0.2066123046875	0		-0.12990824890136718	5.910146484375	0		
-3.573400154709816E-5	0.004471138000488282	0		0.51296533203125	-2.45878662109375	0		-1.0897734375	-0.023700355529785156	0		-0.793669677734375	-2.531819580078125	0		1.2204305419921875	-0.87202197265625	0		2.88459765625	0.06233316040039062	0		4.3381123046875	0.2845854187011719	0		5.7108671875	0.2063267364501953	0		-0.1453450622558594	5.90032666015625	0		
-2.6507198810577393E-4	0.00437520694732666	0		0.48680767822265625	-2.45538427734375	0		-1.098135009765625	-0.030646324157714844	0		-0.763009521484375	-2.53851025390625	0		1.244276611328125	-0.8685726318359375	0		2.8795029296875	0.06934272003173828	0		4.3337490234375	0.2775840759277344	0		5.7196162109375	0.20508113098144531	0		-0.14561639404296875	5.89923046875	0		
